<?xml version="1.0" encoding="utf-8"?>
<!-- Generator: Adobe Illustrator 24.3.0, SVG Export Plug-In . SVG Version: 6.00 Build 0)  -->
<svg version="1.1" id="Ebene_1" xmlns="http://www.w3.org/2000/svg" xmlns:xlink="http://www.w3.org/1999/xlink" x="0px" y="0px"
	 viewBox="0 0 621.5 723.5" style="enable-background:new 0 0 621.5 723.5;" xml:space="preserve">
<style type="text/css">
	.st0{fill:#FFFFFF;}
</style>
<path class="st0" d="M621.4,274.5c-1.5-6.6-16.9-23-23.5-21.6c-4.1,0.9-9.4,5.8-14.3,15c-20.8,36.7-53.7,105.5-74.8,199
	C461.7,483.7,405,510.2,360,527.1c33.4-76.4,71.1-152.7,60.9-198.6c-6.8-30.6-47.4-52.1-88.2-43.1c-9.5,2.2-18.9,5.2-27.9,9
	c-6-23.5-35.7-41.3-61.8-35.5c-55.1,12.2-116.7,69.7-175.4,82.6c-17.3,3.8-30.1-5.6-33-18.4c-19.4-87.7,167.6-280,279.3-304.7
	c15.8-3.5,25.4,6.1,27.9,17.4c6.5,29.6-43.3,96.8-82.6,127.4c-1.4,0.9-2.2,2.1-2,3.1c0.6,2.5,8.3,6.2,11.4,5.5
	c9.2-2,88.8-99.4,79.9-139.6c-4.2-18.9-23.8-37.5-53.9-30.9C175.8,27.6-19.8,229.3,1.6,326.2c5.2,23.5,35,35.1,58.5,29.9
	c49.5-10.9,134-78.9,177.8-88.5c20.4-4.5,30.4,6.6,33.3,19.9c1.6,7.6,1.7,15.4,0.3,23C188.9,352.7,84.9,434.1,93.3,472.3
	c4.4,19.9,27.7,26,43.5,22.5c50.8-11.2,159.3-129.6,168.1-187c14.2-7.5,27.9-12.8,40.6-15.6c28-6.2,41,6.5,45,24.3
	c10.3,46.9-32.8,137.3-68.4,223.2l-7.7,1.7c-24.5,5.4-37.5-5.1-40-4.5c-0.8,0.1-1.3,0.7-1.3,1.5c0,0.1,0,0.3,0.1,0.4
	c0.8,3.6,16.9,23,40.3,22.7c-22.7,56.9-39.9,109.9-32.4,143.6c2.7,12.2,33.1,18.9,35.1,18.5c1.2-0.4,1.9-1.8,1.5-3
	c-0.6-2.5-1.9-6-3.8-14.7c-8.8-39.8,10.9-96,35.4-154.4c46.8-18.4,100.8-54.4,157.1-75.9c-13.1,47.3-20.1,109.8-11.9,147.1
	c2,9.2,17.2,12.3,18.7,11.9c2-0.5,2.2-2.1,1.3-6.2c-9.8-44.4,6.3-114.3,19.8-162.2c4.3-1.4,8.7-2.5,13.1-3.4
	c26.5-5.9,24.8,3.1,26.8,2.6c1.3-0.2,2.3-1.5,2.1-2.8c0-0.1,0-0.2-0.1-0.3c-2.6-11.7-24.8-7.9-38.5-4.8
	c17.8-76.7,56.3-141.9,78.9-173.1C619.4,279.8,622.1,277.6,621.4,274.5z M137.5,488.2c-11.2,2.5-18.4-3.4-20-10.6
	c-9.9-44.9,62-116.4,152.7-158.4C255.4,385.1,175.2,479.9,137.5,488.2z"/>
</svg>
