<?xml version="1.0" encoding="utf-8"?>
<!-- Generator: Adobe Illustrator 24.3.0, SVG Export Plug-In . SVG Version: 6.00 Build 0)  -->
<svg version="1.1" id="Ebene_1" xmlns="http://www.w3.org/2000/svg" xmlns:xlink="http://www.w3.org/1999/xlink" x="0px" y="0px"
	 viewBox="0 0 1653.3 304.5" style="enable-background:new 0 0 1653.3 304.5;" xml:space="preserve">
<style type="text/css">
	.st0{fill:#FFFFFF;}
</style>
<path class="st0" d="M30.9,205.6C12.6,205.6,0,181.9,0,172c0-2.7,1.5-5.4,5.3-5.4c8.4,0,21,3.4,40.5,4.2c1.3-4.3,2-8.8,1.9-13.4
	c0.2-7.2-1-14.3-3.4-21c-5.6,6.6-11.6,12.8-17.9,18.7c-0.5,0.6-1.2,1-1.9,1.1c-0.8-0.1-1.5-0.7-1.5-1.5c0-1.1,1.5-2.3,3.4-4.2
	c6-5.4,11.5-11.2,16.4-17.6c-1.9-5-3.8-9.2-3.8-15.7C39,102.7,58.5,87,65.4,87c5.4,0,13.8,8.8,13.8,13.8c0,5.7-24.8,15.7-24.8,29.8
	c0,16.4,10.3,21.4,11.8,39c14.5-2,27.9-8.7,38.2-19.1c0,0,1.5-1.5,2.3-1.5s1.5,1.1,1.5,1.5c0,0.8-2.7,3.4-3.8,4.6
	c-11.1,11.1-24.4,16.4-37.8,18.3C66.5,189.1,49.3,205.6,30.9,205.6z M44.7,174.6c-18.3-1.1-29.8-3.8-35.5-3.8
	c-1.9,0-2.7,0.8-2.7,2.3c0,4.2,4.2,15.7,16.4,15.7C31.7,188.7,40.1,184.5,44.7,174.6z"/>
<path class="st0" d="M151.3,183.4c-11.1,8.8-21.4,13.8-26.4,13.8c-9.2,0-25.6-9.2-25.6-26.7c0-7.2,1.4-14.3,4.2-21
	c0-0.8-0.4-1.5-0.4-2.7c0-32.5,35.1-55.8,55.4-55.8c17.2,0,29.8,11.1,29.8,27.1c0,25.2-16.4,47-32.9,61.5
	c22.9-1.5,42.8-17.2,54.6-29c0,0,1.1-1.5,2.3-1.5c0.9,0,1.7,0.7,1.9,1.5c0,0.8-3,3.4-4.2,4.6C198.6,165.4,180.7,182.2,151.3,183.4z
	 M148.6,104.7c4.6,0,12.2,10.7,12.2,14.5c0,2.3-2.7,3.8-5,5c-14.1,8.4-33.6,25.2-42,42c6.5,8.4,18,13.4,31.7,14.1
	c16.1-14.1,31.7-38.6,31.7-63.4c0-12.6-7.3-20.6-22.2-20.6s-42,17.6-46.6,42.8c6.1-9.9,14.5-17.6,22.5-24.4
	C137.1,109.2,143.6,104.7,148.6,104.7L148.6,104.7z M110.4,179.9c0,6.9,4.2,12.6,10.7,12.6c5.7,0,13.4-3.4,21-9.2
	c-12.6-1.1-23.3-5.4-30.2-12.6C110.8,173.7,110.3,176.8,110.4,179.9z"/>
<path class="st0" d="M250.2,119.2c0,6.9-10.3,21.4-18.7,35.9c14.1-11.1,55-38.2,69.5-38.2c6.1,0,10.7,11.1,10.7,16
	c0,4.2-29,32.9-29,53.1c0,3.4,2.3,5,5.3,5c23.3,0,64.2-40.5,64.2-40.5s1.5-1.5,2.3-1.5c0.9,0,1.7,0.7,1.9,1.5c0,0.8-4.2,4.6-4.2,4.6
	s-43.9,43.5-64.2,43.5c-9.5,0-21.8-11.9-21.8-24.5c0-16.8,18-40.9,18-43.5c0-0.4-0.4-0.8-1.2-0.8c-4.2,0-33.6,14.5-54.6,34
	c-24.5,22.5-27.5,41.3-30.9,41.3c-3.8,0-10.3-9.5-10.3-17.6c0-7.6,39-54.2,44.3-83.7c0-3.1,1.9-3.4,3.8-3.4
	C239.1,100.5,250.2,109.2,250.2,119.2z"/>
<path class="st0" d="M386.6,116.1c0,9.9-12.6,44.7-30.6,81.8c21-14.1,42-30.2,59.2-47.4c0,0,1.2-1.5,2.3-1.5c0.8,0,1.5,1.1,1.5,1.5
	c0,0.8-2.7,3.4-3.8,4.6c-18.7,18.3-40.9,35.1-62.6,50c-27.5,58.8-56.5,99.3-81.4,99.3c-11.1,0-22.2-13.8-22.2-22.5
	c0-17.2,39.7-42.8,83.3-70.7c19.5-44.6,31-91.6,31-110.4c0-1.5,1.1-2.3,3-2.3C371.7,98.6,386.6,106.2,386.6,116.1z M263.6,295.3
	c22.2,0,48.9-38.6,66.8-77.9c-38.2,25.6-73.7,52-73.7,69.1C256.7,290.7,259.4,295.3,263.6,295.3L263.6,295.3z M412.6,47
	c0,8.4-23.7,24.1-28.7,24.1c-1.9,0-3.5-1.7-3.4-3.6c0-0.1,0-0.1,0-0.2c0-9.2,14.5-28.3,14.5-37.4c-0.1-0.8,0.5-1.5,1.3-1.5
	c0.1,0,0.2,0,0.3,0C402.6,28.3,412.5,41.6,412.6,47L412.6,47z"/>
<path class="st0" d="M524.1,174.6c0.8,0.1,1.5,0.7,1.5,1.5c0,1.1-1.9,2.7-4.2,4.6c-8.4,6.9-17.6,14.1-24.8,14.1
	c-12.2,0-21.4-8.4-21.4-22.9c0-4.6,0.4-9.2,1.2-13.8c-19.1,18.7-45.8,46.2-54.6,46.2s-22.2-10.3-22.2-22.2c0-30.6,52-83.3,84.8-83.3
	c14.9,0,29.4,13.4,29.4,21.8c0,6.1-1.9,9.9-3,9.9s-3.4-2.3-3.4-3.8s1.9-2.7,1.9-7.3c0-2.7-4.2-6.1-6.9-6.1
	c-35.9,0-85.6,53.5-85.6,79.8c0,3,1.5,5,5,5c7.3,0,34.8-26.4,53.1-44.7c11.5-11.5,19.9-19.1,23.3-19.1s13.8,9.9,13.8,16
	c0,4.6-16.8,17.2-16.8,29c0,5,2.7,8,7.3,8c5,0,10.7-4.6,16.8-9.5C521.4,176.1,523.4,174.6,524.1,174.6z"/>
<path class="st0" d="M700.6,191.8c-7.2,0-20.2-11.1-20.2-20.6c0-27.9,26.7-53.9,26.7-56.1c0-1.1-0.8-2.3-2.7-2.3
	c-8.4,0-60.3,32.9-79.5,70.7c-7.6,15.7-9.5,24.5-11.8,24.5c-5,0-11.1-8-11.1-14.5C602,120.7,689.5,0,725.8,0
	c9.2,0,19.1,8.4,19.1,15.7c0,37.1-98.5,118-115,134.1c-4.2,10.3-6.9,19.9-7.6,27.5c18-35.1,75.3-71.4,83.7-71.4c5,0,21,10.3,21,21.4
	s-30.2,35.5-30.2,51.6c0,4.6,2.3,6.9,5.7,6.9c19.5,0,55-35.1,55-35.1s1.5-1.5,2.7-1.5c0.8,0,1.5,1.1,1.5,1.5c0,0.8-3,3.4-4.2,4.6
	C757.5,155.1,721.2,191.8,700.6,191.8z M734.6,14.9c-27.9,0-78.7,72.6-101.2,126.1c10.3-10.7,104.3-91.3,104.3-122.6
	C737.6,16,736.5,14.9,734.6,14.9L734.6,14.9z"/>
<path class="st0" d="M840.4,194.8c-12.2,0-22.9-8.4-22.9-22.9c0-4.6,0.4-9.2,1.2-13.8c-19.1,18.7-45.8,46.2-54.6,46.2
	s-22.2-10.3-22.2-22.2c0-30.6,52-83.3,84.8-83.3c14.9,0,29.4,13.4,29.4,21.8c0,6.1-1.9,9.9-3,9.9s-3.4-2.3-3.4-3.8s1.9-2.7,1.9-7.3
	c0-2.7-4.2-6.1-6.9-6.1c-35.9,0-85.6,53.5-85.6,79.8c0,3,1.5,5,5,5c7.3,0,34.8-26.4,53.1-44.7c11.5-11.5,19.9-19.1,23.3-19.1
	s13.8,9.9,13.8,16c0,4.6-16.8,17.2-16.8,29c0,5,3.8,7.2,8.4,7.2c18.7,0,55-36.3,55-36.3c0.8-0.8,1.5-1.5,2.3-1.5s1.5,0.7,1.5,1.5
	s-2.7,3.4-3.8,4.6C900.7,155.1,861.8,194.8,840.4,194.8z"/>
<path class="st0" d="M942,126.1c0,4.6-21.4,34.4-23.3,39.7c0,0,66.1-67.2,75.6-67.2c6.5,0,19.9,9.2,19.9,21.8
	c0,13-23.3,34.8-23.3,39c0,0,43.2-32.1,50-32.1c6.1,0,13.8,13,13.8,24.5s-23.7,26.7-23.7,42.4c-0.2,2.1,1.3,4,3.4,4.2
	c0.3,0,0.5,0,0.8,0c18.7,0,64.2-47.8,64.2-47.8s1.1-1.5,2.3-1.5c0.9,0,1.7,0.7,1.9,1.5c0,0.8-3.1,3.4-4.2,4.6c0,0-48.1,50-66.5,50
	c-8.4,0-20.2-9.5-20.2-21.4c0-16,26.4-41.6,26.4-47.8c-0.1-0.8-0.7-1.5-1.5-1.5c-3.8,0-29.8,16-43.2,29c-9.2,8.8-16,17.2-18.3,17.2
	c-4.6,0-11.8-8.8-11.8-13.8c0-10.7,32.5-50.8,32.5-60c0-1.1-0.4-1.5-1.2-1.5c-11.8,0-69.1,58.1-80.2,71.8
	c-11.1,13.4-13.8,20.6-17.6,20.6c-3.4,0-11.8-7.3-11.8-16.8c0-15.3,24.4-43.9,39.3-71.8c1.2-1.9,2.3-3.1,3.8-3.1
	C934.4,106.2,942,116.1,942,126.1z"/>
<path class="st0" d="M1140.6,126.1c0,4.6-21.4,34.4-23.3,39.7c0,0,66.1-67.2,75.6-67.2c6.5,0,19.9,9.2,19.9,21.8
	c0,13-23.3,34.8-23.3,39c0,0,43.2-32.1,50-32.1c6.1,0,13.8,13,13.8,24.5s-23.7,26.7-23.7,42.4c0,2.7,1.5,4.2,4.2,4.2
	c18.7,0,64.2-47.8,64.2-47.8s1.2-1.5,2.3-1.5c0.9,0,1.7,0.7,1.9,1.5c0,0.8-3,3.4-4.2,4.6c0,0-48.1,50-66.5,50
	c-8.4,0-20.2-9.5-20.2-21.4c0-16,26.4-41.6,26.4-47.8c-0.1-0.8-0.7-1.5-1.5-1.5c-3.8,0-29.8,16-43.2,29c-9.2,8.8-16,17.2-18.3,17.2
	c-4.6,0-11.8-8.8-11.8-13.8c0-10.7,32.5-50.8,32.5-60c0-1.1-0.4-1.5-1.1-1.5c-11.8,0-69.2,58.1-80.2,71.8
	c-11.1,13.4-13.8,20.6-17.6,20.6c-3.4,0-11.8-7.3-11.8-16.8c0-15.3,24.4-43.9,39.3-71.8c1.1-1.9,2.3-3.1,3.8-3.1
	C1133,106.2,1140.6,116.1,1140.6,126.1z"/>
<path class="st0" d="M1388.9,149c0.8,0,1.5,0.7,1.5,1.5s-2.7,3.4-3.8,4.6c0,0-37.8,41.2-67.2,41.2c-19.5,0-29.8-12.2-29.8-32.1
	c0-34.4,34.4-70.3,51.2-70.3c10.3,0,16.8,13,16.8,17.6c0,10.7-23.3,30.9-44.3,43.9c-0.8,2.3-1.2,9.2-1.2,11.8
	c0,11.8,5.7,21.8,16.8,21.8c20.2,0,57.7-38.6,57.7-38.6S1388.2,149,1388.9,149z M1349.6,111.9c0-3.1-1.2-4.2-3.1-4.2
	c-6.5,0-21.4,14.9-32.8,42.8C1330.9,139,1349.6,120.7,1349.6,111.9L1349.6,111.9z"/>
<path class="st0" d="M1417.9,114.2c-9.2-3.8-20.6-8.4-20.6-17.2c0-14.1,17.2-26.7,26-26.7c5.3,0,14.5,7.6,14.5,10.3
	c0,9.2-6.1,20.6-14.5,32.1c11.8,5.7,31.3,9.2,31.3,19.1c0,14.5-26.4,35.1-26.4,49.7c0,4.6,2.7,8.8,8,8.8c14.1,0,54.2-39.7,54.2-39.7
	c0.8-0.8,1.5-1.5,1.9-1.5c1.2,0,1.5,1.1,1.5,1.9s-1.9,2.7-3.4,4.2c0,0-40.1,41.6-58.8,41.6c-11.5,0-23.7-9.9-23.7-20.6
	c0-22.5,20.2-40.9,20.2-52.7c0-3.4-3.1-5.7-6.9-7.6c-11.5,14.9-25.6,29.8-34.8,39.4c-0.8,0.8-1.5,1.5-1.9,1.5
	c-0.8-0.1-1.5-0.7-1.5-1.5s1.9-2.7,3.4-4.6C1394.7,141.7,1408,128,1417.9,114.2z M1429.4,81c-3.4,0-14.9,8-14.9,21.8
	c0,3.4,2.3,6.1,5.7,8.4c6.5-9.9,11.5-19.9,11.5-28.3C1431.6,81.7,1430.6,80.9,1429.4,81L1429.4,81z"/>
<path class="st0" d="M1581.4,149c0.8,0,1.5,0.7,1.5,1.5s-2.7,3.4-3.8,4.6c0,0-37.8,41.2-67.2,41.2c-19.5,0-29.8-12.2-29.8-32.1
	c0-34.4,34.4-70.3,51.2-70.3c10.3,0,16.8,13,16.8,17.6c0,10.7-23.3,30.9-44.3,43.9c-0.8,2.3-1.2,9.2-1.2,11.8
	c0,11.8,5.7,21.8,16.8,21.8c20.2,0,57.7-38.6,57.7-38.6S1580.7,149,1581.4,149z M1542.1,111.9c0-3.1-1.2-4.2-3.1-4.2
	c-6.5,0-21.4,14.9-32.8,42.8C1523.4,139,1542.1,120.7,1542.1,111.9L1542.1,111.9z"/>
<path class="st0" d="M1646.8,183.4c2.3-1.5,4.2-3.1,5-3.1c0.8,0.1,1.5,0.7,1.5,1.5c0,1.1-2.3,3-4.2,4.6c-8,6.5-17.6,10.3-24.8,10.3
	c-11.5,0-23.7-9.9-23.7-20.6c0-22.5,20.2-40.9,20.2-52.7c0-3.4-3.1-5.7-6.9-7.6c-11.5,14.9-25.6,29.8-34.8,39.4
	c-0.8,0.8-1.5,1.5-1.9,1.5c-0.8-0.1-1.5-0.7-1.5-1.5s1.9-2.7,3.4-4.6c8-8.8,21.4-22.5,31.3-36.3c-9.2-3.8-20.6-8.4-20.6-17.2
	c0-14.1,17.2-26.7,26-26.7c5.3,0,14.5,7.6,14.5,10.3c0,9.2-6.1,20.6-14.5,32.1c11.8,5.7,31.3,9.2,31.3,19.1
	c0,14.5-26.4,35.1-26.4,49.7c0,4.6,3.4,8,9.2,8C1634.9,189.5,1640.3,187.6,1646.8,183.4z M1621.9,81c-3.4,0-14.9,8-14.9,21.8
	c0,3.4,2.3,6.1,5.7,8.4c6.5-9.9,11.5-19.9,11.5-28.3C1624.1,81.7,1623.1,80.9,1621.9,81L1621.9,81z"/>
</svg>
